<svg viewBox="0 0 128 128" xml:space="preserve" xmlns="http://www.w3.org/2000/svg" enable-background="new 0 0 128 128"><circle cx="64" cy="64" r="50" fill="#00942a" class="fill-0079bf"></circle><path d="M82.4 39.5H45.6c-3.4 0-6.1 2.7-6.1 6.1v36.7c0 3.4 2.7 6.1 6.1 6.1h36.7c3.4 0 6.1-2.7 6.1-6.1V45.6c.1-3.4-2.6-6.1-6-6.1zM60.8 77.9c0 1.6-1.3 2.9-2.9 2.9h-9.1c-1.6 0-2.9-1.3-2.9-2.9V50.1c0-1.6 1.3-2.9 2.9-2.9h9.1c1.6 0 2.9 1.3 2.9 2.9v27.8zm21.3-12.2c0 1.6-1.3 2.9-2.9 2.9h-9.1c-1.6 0-2.9-1.3-2.9-2.9V50.1c0-1.6 1.3-2.9 2.9-2.9h9.1c1.6 0 2.9 1.3 2.9 2.9v15.6z" fill="#ffffff" class="fill-ffffff"></path></svg>